<svg width="1000" height="1000" viewBox="0 0 1000 1000" fill="none" xmlns="http://www.w3.org/2000/svg">
<circle cx="514.5" cy="130.5" r="11.5" fill="#FCD91E"/>
<circle cx="518.5" cy="128.5" r="10.5" stroke="black" stroke-width="2"/>
<circle cx="319" cy="225" r="18" fill="#FCD91E"/>
<circle cx="315" cy="223" r="17" stroke="black" stroke-width="2"/>
<circle cx="403" cy="380" r="17" fill="#FCD91E" stroke="black" stroke-width="2"/>
<path d="M331.48 328.839C325.056 354.533 338.536 376.285 346.078 383.949H310.677C294.035 369.642 291.82 341.248 292.794 328.839H331.48Z" fill="#119B48"/>
<path d="M325.64 323C319.217 348.693 332.696 370.445 340.239 378.109H304.837C288.195 363.803 285.981 335.409 286.954 323H325.64Z" stroke="black" stroke-width="2"/>
<path d="M332.575 397.088C315.64 383.949 308.001 359.01 306.297 348.182L271.261 360.591C277.1 385.117 297.052 400.737 306.297 405.482L332.575 397.088Z" fill="#119B48"/>
<path d="M326.735 391.248C309.801 378.109 302.161 353.17 300.458 342.343L265.421 354.752C271.261 379.277 291.212 394.898 300.458 399.642L326.735 391.248Z" stroke="black" stroke-width="2"/>
<path d="M322.356 409.861C310.385 407.526 300.58 386.747 297.173 376.65L276.005 389.423C280.093 411.029 294.01 420.81 300.458 423L322.356 409.861Z" fill="#119B48"/>
<path d="M316.516 404.022C304.546 401.686 294.74 380.908 291.334 370.81L270.166 383.584C274.254 405.19 288.171 414.971 294.619 417.161L316.516 404.022Z" stroke="black" stroke-width="2"/>
<path d="M210 531H791V568.5C791 728.939 660.939 859 500.5 859V859C340.061 859 210 728.939 210 568.5V531Z" fill="#61458D" fill-opacity="0.5" style="mix-blend-mode:hard-light"/>
<path d="M758.116 164.947L768.321 154.127L809.229 173.753L891.728 233.332L903.659 255.412L893.089 266.279C893.09 266.511 893.091 266.744 893.091 266.977H836.805C836.805 259.242 835.024 251.615 831.609 244.723C828.193 237.83 823.239 231.866 817.152 227.318C811.065 222.77 804.018 219.767 796.586 218.556C789.154 217.344 781.549 217.958 774.392 220.346L757.012 165.308C757.38 165.185 757.747 165.065 758.116 164.947Z" fill="#9063C0"/>
<path d="M751.975 162.077L762.18 151.257L803.088 170.883L885.586 230.463L897.518 252.542L886.948 263.409C886.949 263.642 886.95 263.875 886.95 264.107H830.664C830.664 256.372 828.883 248.746 825.467 241.853C822.052 234.96 817.098 228.996 811.011 224.448C804.924 219.9 797.876 216.898 790.444 215.686C783.013 214.474 775.407 215.088 768.25 217.476L750.871 162.438C751.238 162.315 751.606 162.195 751.975 162.077Z" stroke="black" stroke-width="2"/>
<path d="M904 255.762C904 238.896 900.118 222.269 892.67 207.24C885.223 192.212 874.422 179.208 861.151 169.293C847.88 159.377 832.514 152.831 816.311 150.189C800.107 147.547 783.525 148.885 767.921 154.093L785.3 209.131C792.457 206.743 800.063 206.129 807.494 207.341C814.926 208.553 821.974 211.555 828.061 216.103C834.148 220.651 839.102 226.615 842.517 233.508C845.933 240.401 847.714 248.027 847.714 255.762H904Z" fill="#C28AFF"/>
<mask id="path-16-inside-1_1_2" fill="white">
<path d="M897.859 252.893C897.859 236.026 893.976 219.399 886.529 204.371C879.082 189.342 868.281 176.338 855.01 166.423C841.738 156.507 826.373 149.961 810.169 147.319C793.966 144.678 777.384 146.015 761.78 151.223L779.159 206.261C786.316 203.873 793.921 203.259 801.353 204.471C808.785 205.683 815.832 208.685 821.919 213.233C828.006 217.781 832.96 223.745 836.376 230.638C839.791 237.531 841.572 245.157 841.572 252.893H897.859Z"/>
</mask>
<path d="M897.859 252.893C897.859 236.026 893.976 219.399 886.529 204.371C879.082 189.342 868.281 176.338 855.01 166.423C841.738 156.507 826.373 149.961 810.169 147.319C793.966 144.678 777.384 146.015 761.78 151.223L779.159 206.261C786.316 203.873 793.921 203.259 801.353 204.471C808.785 205.683 815.832 208.685 821.919 213.233C828.006 217.781 832.96 223.745 836.376 230.638C839.791 237.531 841.572 245.157 841.572 252.893H897.859Z" stroke="black" stroke-width="4" mask="url(#path-16-inside-1_1_2)"/>
<path fill-rule="evenodd" clip-rule="evenodd" d="M683.514 232.955C689.516 212.701 701.233 194.737 717.18 181.339L752.798 226.145C745.484 232.29 740.109 240.53 737.357 249.819C735.343 256.614 734.798 263.747 735.723 270.724L747.862 266.911L737.204 277.869C737.247 278.02 737.29 278.171 737.335 278.322L683.466 295.1C677.495 274.837 677.512 253.208 683.514 232.955Z" fill="#C7AB14"/>
<path d="M717.18 181.339L717.571 181.028L717.251 180.626L716.858 180.956L717.18 181.339ZM683.514 232.955L683.034 232.813L683.034 232.813L683.514 232.955ZM752.798 226.145L753.119 226.528L753.492 226.215L753.189 225.834L752.798 226.145ZM737.357 249.819L737.836 249.961L737.836 249.961L737.357 249.819ZM735.723 270.724L735.227 270.79L735.305 271.38L735.873 271.202L735.723 270.724ZM747.862 266.911L748.22 267.26L747.712 266.434L747.862 266.911ZM737.204 277.869L736.845 277.52L736.644 277.727L736.723 278.005L737.204 277.869ZM737.335 278.322L737.484 278.8L737.954 278.653L737.815 278.181L737.335 278.322ZM683.466 295.1L682.987 295.242L683.13 295.729L683.615 295.578L683.466 295.1ZM716.858 180.956C700.835 194.418 689.064 212.467 683.034 232.813L683.993 233.097C689.968 212.936 701.631 195.056 717.501 181.722L716.858 180.956ZM753.189 225.834L717.571 181.028L716.788 181.65L752.406 226.457L753.189 225.834ZM737.836 249.961C740.561 240.765 745.881 232.609 753.119 226.528L752.476 225.763C745.086 231.972 739.658 240.295 736.877 249.677L737.836 249.961ZM736.218 270.659C735.303 263.75 735.842 256.688 737.836 249.961L736.877 249.677C734.844 256.54 734.293 263.743 735.227 270.79L736.218 270.659ZM735.873 271.202L748.012 267.388L747.712 266.434L735.573 270.247L735.873 271.202ZM747.504 266.563L736.845 277.52L737.562 278.217L748.22 267.26L747.504 266.563ZM737.815 278.181C737.77 278.032 737.727 277.882 737.684 277.732L736.723 278.005C736.766 278.158 736.81 278.311 736.855 278.464L737.815 278.181ZM683.615 295.578L737.484 278.8L737.186 277.845L683.318 294.623L683.615 295.578ZM683.034 232.813C677.005 253.158 676.988 274.886 682.987 295.242L683.946 294.959C678.002 274.789 678.018 253.258 683.993 233.097L683.034 232.813Z" fill="black"/>
<mask id="path-19-inside-2_1_2" fill="white">
<path d="M728.088 170.124C712.142 183.522 700.424 201.487 694.422 221.74C688.42 241.993 688.404 263.622 694.375 283.885L748.244 267.107C745.505 257.814 745.512 247.893 748.265 238.604C751.018 229.315 756.392 221.075 763.706 214.93L728.088 170.124Z"/>
</mask>
<path d="M728.088 170.124C712.142 183.522 700.424 201.487 694.422 221.74C688.42 241.993 688.404 263.622 694.375 283.885L748.244 267.107C745.505 257.814 745.512 247.893 748.265 238.604C751.018 229.315 756.392 221.075 763.706 214.93L728.088 170.124Z" fill="#FCD91E" stroke="black" stroke-width="4" mask="url(#path-19-inside-2_1_2)"/>
<path fill-rule="evenodd" clip-rule="evenodd" d="M827.488 282.831L838.201 271.818L842.633 286.187L839.709 287.972L879.207 304.586C872.317 321.897 861.129 337.047 846.761 348.522C832.393 359.997 815.347 367.395 797.328 369.977C779.308 372.559 760.944 370.234 744.072 363.236C727.199 356.237 712.408 344.81 701.177 330.094L702.351 329.147L712.408 319.131L713.894 319.836L745.458 294.373C750.609 301.122 757.393 306.363 765.132 309.573C772.87 312.783 781.293 313.849 789.558 312.665C797.823 311.481 805.641 308.087 812.231 302.824C818.821 297.562 823.952 290.613 827.112 282.673L827.488 282.831Z" fill="#8D8A95"/>
<path d="M838.201 271.818L838.679 271.67L838.43 270.865L837.843 271.469L838.201 271.818ZM827.488 282.831L827.294 283.292L827.609 283.424L827.847 283.18L827.488 282.831ZM842.633 286.187L842.893 286.614L843.225 286.411L843.11 286.04L842.633 286.187ZM839.709 287.972L839.448 287.545L838.615 288.054L839.515 288.432L839.709 287.972ZM879.207 304.586L879.671 304.77L879.852 304.315L879.4 304.125L879.207 304.586ZM797.328 369.977L797.257 369.482L797.257 369.482L797.328 369.977ZM744.072 363.236L744.263 362.774L744.263 362.774L744.072 363.236ZM701.177 330.094L700.863 329.705L700.484 330.011L700.779 330.398L701.177 330.094ZM702.351 329.147L702.665 329.537L702.685 329.52L702.703 329.502L702.351 329.147ZM712.408 319.131L712.623 318.679L712.305 318.528L712.055 318.777L712.408 319.131ZM713.894 319.836L713.679 320.287L713.963 320.422L714.208 320.225L713.894 319.836ZM745.458 294.373L745.855 294.069L745.544 293.661L745.144 293.983L745.458 294.373ZM765.132 309.573L765.323 309.111L765.323 309.111L765.132 309.573ZM789.558 312.665L789.629 313.16L789.629 313.16L789.558 312.665ZM812.231 302.824L811.919 302.434L811.919 302.434L812.231 302.824ZM827.112 282.673L827.306 282.212L826.836 282.014L826.647 282.488L827.112 282.673ZM837.843 271.469L827.13 282.483L827.847 283.18L838.559 272.166L837.843 271.469ZM843.11 286.04L838.679 271.67L837.723 271.965L842.155 286.334L843.11 286.04ZM839.969 288.398L842.893 286.614L842.372 285.76L839.448 287.545L839.969 288.398ZM839.515 288.432L879.013 305.046L879.4 304.125L839.903 287.511L839.515 288.432ZM878.742 304.401C871.884 321.633 860.748 336.711 846.449 348.131L847.073 348.913C861.51 337.383 872.75 322.162 879.671 304.77L878.742 304.401ZM846.449 348.131C832.15 359.551 815.187 366.913 797.257 369.482L797.398 370.472C815.507 367.877 832.636 360.442 847.073 348.913L846.449 348.131ZM797.257 369.482C779.326 372.051 761.053 369.738 744.263 362.774L743.88 363.698C760.835 370.73 779.289 373.066 797.398 370.472L797.257 369.482ZM744.263 362.774C727.473 355.81 712.753 344.437 701.574 329.791L700.779 330.398C712.064 345.182 726.925 356.665 743.88 363.698L744.263 362.774ZM701.491 330.484L702.665 329.537L702.037 328.758L700.863 329.705L701.491 330.484ZM702.703 329.502L712.761 319.485L712.055 318.777L701.998 328.793L702.703 329.502ZM712.194 319.583L713.679 320.287L714.108 319.384L712.623 318.679L712.194 319.583ZM714.208 320.225L745.772 294.762L745.144 293.983L713.58 319.446L714.208 320.225ZM745.06 294.676C750.265 301.494 757.119 306.791 764.94 310.035L765.323 309.111C757.667 305.936 750.954 300.749 745.855 294.069L745.06 294.676ZM764.94 310.035C772.761 313.279 781.275 314.357 789.629 313.16L789.487 312.17C781.311 313.341 772.979 312.287 765.323 309.111L764.94 310.035ZM789.629 313.16C797.983 311.963 805.884 308.533 812.543 303.215L811.919 302.434C805.398 307.642 797.663 310.998 789.487 312.17L789.629 313.16ZM812.543 303.215C819.201 297.897 824.385 290.877 827.576 282.858L826.647 282.488C823.519 290.348 818.44 297.226 811.919 302.434L812.543 303.215ZM826.918 283.134L827.294 283.292L827.682 282.37L827.306 282.212L826.918 283.134Z" fill="black"/>
<mask id="path-22-inside-3_1_2" fill="white">
<path d="M712.085 318.88C723.317 333.595 738.108 345.022 754.98 352.021C771.853 359.019 790.216 361.344 808.236 358.762C826.256 356.18 843.302 348.782 857.67 337.307C872.038 325.832 883.226 310.682 890.115 293.371L838.021 271.458C834.861 279.398 829.729 286.347 823.139 291.61C816.549 296.873 808.731 300.266 800.467 301.45C792.202 302.634 783.779 301.568 776.04 298.358C768.302 295.148 761.518 289.907 756.367 283.158L712.085 318.88Z"/>
</mask>
<path d="M712.085 318.88C723.317 333.595 738.108 345.022 754.98 352.021C771.853 359.019 790.216 361.344 808.236 358.762C826.256 356.18 843.302 348.782 857.67 337.307C872.038 325.832 883.226 310.682 890.115 293.371L838.021 271.458C834.861 279.398 829.729 286.347 823.139 291.61C816.549 296.873 808.731 300.266 800.467 301.45C792.202 302.634 783.779 301.568 776.04 298.358C768.302 295.148 761.518 289.907 756.367 283.158L712.085 318.88Z" fill="#ACA9B4" stroke="black" stroke-width="4" mask="url(#path-22-inside-3_1_2)"/>
<path d="M512.366 254.738C512.755 254.83 513.133 254.917 513.5 255C525.9 257.8 538.333 276.833 543 286C542.861 284.792 542.714 283.6 542.56 282.422C553.886 301.108 575.18 338.951 574 348L571 357.5C566.754 342.271 556.538 310.884 546.252 293.72C566.824 353.125 558.919 372.04 557 373C555.4 373.8 537.333 371.667 528.5 370.5C528.848 368.061 524.163 354.821 520.856 346.05C522.169 352.138 521.897 363.17 521.5 369C510.124 360.927 484.694 363.458 470.533 366.248C469.838 361.612 469.743 356.624 470.4 351.274C490.716 345.837 502.901 330.541 509.275 312.705C513.199 316.8 530 308.248 530 291.5C530 278.152 519.968 287.932 513.476 296.337C515.768 282.625 515.305 268.717 513 257.5C512.81 256.575 512.598 255.654 512.366 254.738Z" fill="#F8F5EF"/>
<path d="M395.332 260.53C398.322 258.924 401.21 257.258 403.996 255.546L403.5 257.5C397.269 284.056 395.475 335.202 430.704 349.504C432.037 353.057 433.295 357.062 434.154 361.103C430.129 360.337 427.233 359.744 426.5 359.5C424.1 358.7 420.833 354.5 419.5 352.5V357C408.7 355.4 398 349.333 394 346.5C390.8 342.9 389.333 330.333 389 324.5C387 326.9 384.167 337.5 383 342.5C374.6 341.7 363.5 335.833 359 333C362.117 317.068 381.952 282.245 395.332 260.53Z" fill="#F8F5EF"/>
<path d="M512.366 254.738C512.755 254.83 513.133 254.917 513.5 255C525.9 257.8 538.333 276.833 543 286C542.861 284.792 542.714 283.6 542.56 282.422C553.886 301.108 575.18 338.951 574 348L571 357.5C566.754 342.271 556.538 310.884 546.252 293.72C566.824 353.125 558.919 372.04 557 373C555.4 373.8 537.333 371.667 528.5 370.5C528.848 368.061 524.163 354.821 520.856 346.05C522.169 352.138 521.897 363.17 521.5 369C510.124 360.927 484.694 363.458 470.533 366.248C469.838 361.612 469.743 356.624 470.4 351.274C490.716 345.837 502.901 330.541 509.275 312.705C513.199 316.8 530 308.248 530 291.5C530 278.152 519.968 287.932 513.476 296.337C515.768 282.625 515.305 268.717 513 257.5C512.81 256.575 512.598 255.654 512.366 254.738Z" stroke="black" stroke-width="2"/>
<path d="M395.332 260.53C398.322 258.924 401.21 257.258 403.996 255.546L403.5 257.5C397.269 284.056 395.475 335.202 430.704 349.504C432.037 353.057 433.295 357.062 434.154 361.103C430.129 360.337 427.233 359.744 426.5 359.5C424.1 358.7 420.833 354.5 419.5 352.5V357C408.7 355.4 398 349.333 394 346.5C390.8 342.9 389.333 330.333 389 324.5C387 326.9 384.167 337.5 383 342.5C374.6 341.7 363.5 335.833 359 333C362.117 317.068 381.952 282.245 395.332 260.53Z" stroke="black" stroke-width="2"/>
<path d="M294.5 752.5C293 765.833 291.3 798.2 296.5 821C303 849.5 322 884.5 328.5 882.5C332.388 881.304 329.121 874.921 325.225 867.309C322.607 862.194 319.706 856.524 318.5 851.5C317.712 848.218 317.062 844.866 316.605 841.545C319.738 844.986 322.405 840.058 323.5 836.5C328.702 823.867 320.703 795.444 319.218 790.263L318.836 788.875C317.003 782.071 314.172 773.111 310 761L294.5 752.5Z" fill="#201E25" stroke="black" stroke-width="2"/>
<path d="M323.5 836.5C322.405 840.058 319.738 844.986 316.605 841.545C315.32 832.22 315.55 823.137 318.5 816.5" stroke="black" stroke-width="2"/>
<path d="M581.872 325.113C581.379 324.981 580.92 324.78 580.5 324.5C578.211 323.657 575 323.197 575.509 325.875C575.323 325.631 575.152 325.341 575 325C573 320.5 580 316.5 584.5 317C588.1 317.4 584.333 322.5 582 325C581.959 325.037 581.916 325.075 581.872 325.113Z" fill="#201E25" stroke="black" stroke-width="2"/>
<path d="M605.598 314.046C604.479 311.062 603.975 306.5 609 306.5C616 306.5 619.5 310.5 621.5 315C621.501 315.003 621.503 315.006 621.504 315.009C620.562 314.257 619.562 313.584 618.5 313C617.167 311.833 613.1 310.2 607.5 313C606.912 313.294 606.276 313.647 605.598 314.046Z" fill="#201E25" stroke="black" stroke-width="2"/>
<path d="M608.5 329C607.7 322.2 576.5 292.5 561 278.5C577 260.5 594.667 258 601.5 259C605.1 265.4 611.667 306 614.5 325.5L608.5 329Z" fill="#119B48"/>
<path d="M602.5 327C601.7 320.2 570.5 290.5 555 276.5C571 258.5 588.667 256 595.5 257C599.1 263.4 605.667 304 608.5 323.5L602.5 327Z" stroke="black" stroke-width="2"/>
<path d="M563 295.5C580.6 303.1 590.667 322.333 593.5 331L609 318.5C605.8 297.3 597.333 278 593.5 271C575.1 279.4 565.5 290.833 563 295.5Z" fill="#119B48"/>
<mask id="mask0_1_2" style="mask-type:alpha" maskUnits="userSpaceOnUse" x="557" y="269" width="50" height="64">
<path d="M559 295.5C576.6 303.1 586.667 322.333 589.5 331L605 318.5C601.8 297.3 593.333 278 589.5 271C571.1 279.4 561.5 290.833 559 295.5Z" fill="#D9D9D9" stroke="black" stroke-width="2"/>
</mask>
<g mask="url(#mask0_1_2)">
<path d="M559 295.5C576.6 303.1 586.667 322.333 589.5 331L605 318.5C601.8 297.3 593.333 278 589.5 271C571.1 279.4 561.5 290.833 559 295.5Z" stroke="black" stroke-width="2"/>
<path d="M595.5 328.5C591.466 321.207 583.155 306.518 580.091 302.266C579.888 302.002 579.691 301.747 579.5 301.5C579.666 301.693 579.864 301.951 580.091 302.266C585.924 309.839 596.613 324.067 597 326L595.5 328.5Z" fill="#185832"/>
<path d="M601 323.5C600.6 321.5 590.833 299.333 586 288.5C588 290.1 598.5 311.167 603.5 321.5L601 323.5Z" fill="#185832"/>
<path d="M605 321.5C605 319.9 597 296.5 593 285C594.2 286.2 602.833 308.5 607 319.5C606.333 320.833 605 323.1 605 321.5Z" fill="#185832"/>
</g>
<path d="M595 330.5C587.8 335.3 580.667 332.5 578 330.5C572.4 322.9 577.333 323.333 580.5 324.5C586.5 328.5 600.5 316.5 607.5 313C613.1 310.2 617.167 311.833 618.5 313C638.5 324 636.5 366.5 639.5 372.5C641.9 377.3 644.833 389.5 646 395C642.333 398.333 635.3 403 636.5 395C637.7 387 631 375.667 627.5 371" stroke="black" stroke-width="2"/>
<path d="M646 395C644.833 389.5 641.9 377.3 639.5 372.5C638.717 370.934 638.274 366.881 637.693 361.552C636.045 346.461 633.28 321.129 618.5 313C617.167 311.833 613.1 310.2 607.5 313C605.626 313.937 603.252 315.482 600.663 317.167C593.579 321.777 584.894 327.429 580.5 324.5C577.333 323.333 572.4 322.9 578 330.5C578.129 330.597 578.269 330.696 578.419 330.796C578.265 333.131 578.674 337.019 581.157 339.333C580.855 342.475 581.759 347.034 587 349C588.81 349.679 590.825 350.05 592.894 350.173C593.781 353.647 596.125 358.175 601 358.5C604.318 358.721 608.321 358.649 612.013 358.196C615.854 365.004 620.732 370.492 627.5 371C631 375.667 637.7 387 636.5 395C635.3 403 642.333 398.333 646 395Z" fill="#201E25" stroke="black" stroke-width="2"/>
<path d="M604 337C599 342.5 586.5 343 582 340C578.787 337.858 578.256 333.432 578.416 330.846" stroke="black" stroke-width="2"/>
<path d="M610.368 343.5C610.455 344.031 610.348 344.536 610 345C607 349 595 352 587 349C581.705 347.014 580.836 342.382 581.166 339.237" stroke="black" stroke-width="2"/>
<path d="M416 384C415.6 382 413.5 381.5 412.5 381.5L410.5 387L416 384Z" fill="#D9D9D9" stroke="black" stroke-width="2"/>
<path d="M418 382.5C418 373.7 426 374.167 430 375.5C430 400 373.4 524.1 369 562.5C364.6 600.9 313.5 760.5 311 762C308.5 763.5 299.5 761 295 760C290.5 759 287.5 751.5 287.5 751.5C253.5 696.5 308.5 583.5 311 524.5C313.5 465.5 352.5 396.5 376 394C394.8 392 411.833 385.5 418 382.5Z" fill="#6215DD"/>
<path d="M519 413C518.2 403.4 508.667 399 504 398C503 420.167 501.6 476.5 504 524.5C507 584.5 601 631.5 620 634C639 636.5 651 591.5 663 539C672.6 497 656 422.833 646.5 391C639.7 388.6 633.333 394.667 631 398C633 420.5 620.5 464.5 611 479.5C603.4 491.5 591.833 519.167 587 531.5C584.6 519.1 572.667 498.333 567 489.5C547.5 407.5 520 425 519 413Z" fill="#6215DD"/>
<path d="M418 382.5C418 373.7 426 374.167 430 375.5C430 400 373.4 524.1 369 562.5C364.6 600.9 313.5 760.5 311 762C308.5 763.5 299.5 761 295 760C290.5 759 287.5 751.5 287.5 751.5C253.5 696.5 308.5 583.5 311 524.5C313.5 465.5 352.5 396.5 376 394C394.8 392 411.833 385.5 418 382.5Z" stroke="black" stroke-width="2"/>
<path d="M519 413C518.2 403.4 508.667 399 504 398C503 420.167 501.6 476.5 504 524.5C507 584.5 601 631.5 620 634C639 636.5 651 591.5 663 539C672.6 497 656 422.833 646.5 391C639.7 388.6 633.333 394.667 631 398C633 420.5 620.5 464.5 611 479.5C603.4 491.5 591.833 519.167 587 531.5C584.6 519.1 572.667 498.333 567 489.5C547.5 407.5 520 425 519 413Z" stroke="black" stroke-width="2"/>
<path d="M342 700.5C341.2 577.3 391.333 436.5 416.5 381.5C412.5 381.5 404.167 385.5 400.5 387.5C392 393.5 363 491.5 351 544.5C341.4 586.9 334 666.167 331.5 700.5H342Z" fill="#CCFAA9" stroke="black" stroke-width="2"/>
<path d="M338 700.5C337.2 577.3 387.333 436.5 412.5 381.5C408.5 381.5 400.167 385.5 396.5 387.5C388 393.5 359 491.5 347 544.5C337.4 586.9 330 666.167 327.5 700.5H338Z" stroke="black" stroke-width="2"/>
<path d="M365.5 698C341.5 692.8 324.167 693.833 318.5 695C318.5 723.5 329.5 748.5 337 754.5C343 759.3 353.167 757.833 357.5 756.5C353.5 749.3 361.167 714.5 365.5 698Z" fill="#CCFAA9" stroke="black" stroke-width="2"/>
<path d="M361.5 698C337.5 692.8 320.167 693.833 314.5 695C314.5 723.5 325.5 748.5 333 754.5C339 759.3 349.167 757.833 353.5 756.5C349.5 749.3 357.167 714.5 361.5 698Z" stroke="black" stroke-width="2"/>
<path d="M554 692.5C546.5 699 522.167 701.833 516 702L512 673.5C512.5 661.833 512.7 637.4 519.5 633C528 627.5 588 614.5 601.5 618C615 621.5 614.698 628.633 607.5 642C600.5 655 569.51 679.058 554 692.5Z" fill="#41138A" stroke="black" stroke-width="2"/>
<mask id="mask1_1_2" style="mask-type:alpha" maskUnits="userSpaceOnUse" x="210" y="248" width="581" height="611">
<path d="M210 248H791V568.5C791 728.939 660.939 859 500.5 859V859C340.061 859 210 728.939 210 568.5V248Z" fill="#D9D9D9"/>
</mask>
<g mask="url(#mask1_1_2)">
<path d="M537.5 690.5C514.5 644 514.5 628 513.5 622.5L445 643.5L419 872L480.5 891C510.667 891.167 573.1 885.8 581.5 863C592 834.5 560.5 737 537.5 690.5Z" fill="#4F71E9" stroke="black" stroke-width="2"/>
<path d="M334 792C341.6 731.2 366.5 680.667 378 663C404.333 657.5 456 648.7 452 657.5C447 668.5 455 693.5 457 701.5C459 709.5 455 713 448 718C441 723 439 747.5 438.5 781.5C438.1 808.7 441.667 863.167 443.5 887H407C379.5 880.667 326.4 852.8 334 792Z" fill="#4F71E9" stroke="black" stroke-width="2"/>
</g>
<path d="M352.5 596.5C364.1 558.1 382.833 505.167 380.5 477L423 384.5L510 405L543 471C546 550.5 600 609 609 615.5C618 622 624.5 623 596.5 657.5C572.881 686.602 543.67 698.5 541.5 698.5C541 698.5 542 698.5 543 698C564.513 687.244 611 643 609 628C607 613 544 617 476.5 659.5C409 702 360 693.5 342 685.5C324 677.5 338 644.5 352.5 596.5Z" fill="#6215DD"/>
<path d="M380.5 477C382.833 505.167 364.1 558.1 352.5 596.5C338 644.5 324 677.5 342 685.5C360 693.5 409 702 476.5 659.5C544 617 607 613 609 628C611 643 564.513 687.244 543 698C542 698.5 541 698.5 541.5 698.5C543.67 698.5 572.881 686.602 596.5 657.5C624.5 623 618 622 609 615.5C600 609 546 550.5 543 471" stroke="black" stroke-width="2"/>
<path d="M510.277 405.939C510.175 406.259 509.893 406.621 509.238 406.968C508.578 407.317 507.625 407.603 506.361 407.794C503.838 408.175 500.304 408.144 495.982 407.697C487.356 406.805 475.804 404.276 463.384 400.311C450.965 396.345 440.085 391.712 432.538 387.439C428.757 385.299 425.859 383.276 424.024 381.503C423.104 380.616 422.493 379.83 422.158 379.163C421.825 378.501 421.805 378.043 421.907 377.723C422.009 377.403 422.291 377.041 422.946 376.694C423.605 376.345 424.559 376.059 425.823 375.869C428.346 375.488 431.88 375.518 436.201 375.965C444.828 376.857 456.38 379.386 468.799 383.351C481.219 387.317 492.099 391.951 499.646 396.223C503.427 398.363 506.324 400.386 508.16 402.159C509.08 403.047 509.691 403.832 510.026 404.499C510.359 405.161 510.379 405.619 510.277 405.939Z" fill="#41138A" stroke="black" stroke-width="2"/>
<path d="M403.996 255.546C431.155 238.865 448.654 217.867 456.184 205.945C462.975 239.389 496.484 250.978 512.366 254.738C512.598 255.654 512.81 256.575 513 257.5C515.305 268.717 515.768 282.625 513.476 296.337C519.968 287.932 530 278.152 530 291.5C530 308.248 513.199 316.8 509.275 312.705C502.901 330.541 490.716 345.837 470.4 351.274C466.696 381.449 486.889 400.088 503.963 409.02C495.306 409.418 479.966 406.655 463.08 401.263C449.224 396.839 437.243 391.576 429.619 386.879C430.931 384.888 432.247 382.602 433.5 380C437.354 371.996 434.305 359.103 430.704 349.504C395.475 335.202 397.269 284.056 403.5 257.5L403.996 255.546Z" fill="#201E25" stroke="black" stroke-width="2"/>
<path d="M489.099 195.488L486.693 198.027L490.077 197.144L490.539 197.023C503.988 199.524 532.866 219.564 541.351 280.938C538.93 276.826 535.67 271.949 531.916 267.47C526.654 261.191 520.263 255.502 513.72 254.025C506.096 252.303 493.637 248.638 482.239 241.184C470.855 233.738 460.575 222.546 457.164 205.746L456.668 203.306L455.338 205.411C447.079 218.489 426.641 242.684 394.459 259.863C394.297 249.016 396.37 233.928 402.984 221.407C409.899 208.317 421.743 198.066 441.294 198.299L443.871 198.33L441.989 196.569C437.598 192.46 435 187.2 435 181.5C435 168.728 448.199 158 465 158C481.801 158 495 168.728 495 181.5C495 186.713 492.827 191.556 489.099 195.488Z" fill="#F8F5EF" stroke="black" stroke-width="2"/>
<path d="M338 676.5C332.8 677.7 340.167 686 344.5 690C358 697 395.5 695.5 375.5 695C355.5 694.5 344.5 675 338 676.5Z" fill="#41138A"/>
<path d="M344.5 686.5C340.167 682.5 332.8 673.7 338 672.5C344.5 671 357.5 691.5 377.5 692" stroke="black" stroke-width="2"/>
<g style="mix-blend-mode:overlay">
<path d="M210 531H791V568.5C791 728.939 660.939 859 500.5 859V859C340.061 859 210 728.939 210 568.5V531Z" fill="#61458D" fill-opacity="0.36" style="mix-blend-mode:hard-light"/>
</g>
</svg>
