<svg width="42" height="42" viewBox="0 0 42 42" fill="none" xmlns="http://www.w3.org/2000/svg">
<rect width="9.45407" height="41.5979" rx="4.72703" fill="white"/>
<path d="M13.2358 17.537C13.2358 15.1614 15.1616 13.2357 17.5371 13.2357V13.2357C19.9126 13.2357 21.8383 15.1614 21.8383 17.5369V29.0069C21.8383 31.3824 19.9126 33.3081 17.5371 33.3081V33.3081C15.1616 33.3081 13.2358 31.3824 13.2358 29.0069V17.537Z" fill="#FCD91E"/>
<rect x="13.2358" y="1.89087" width="8.60246" height="10.0362" rx="4.30123" fill="#FCD91E"/>
<path d="M42 21.748C38.126 20.9921 34.9528 14.2677 33.8504 11L27 15.1339C28.3228 22.126 32.8268 25.2913 34.9134 26L42 21.748Z" fill="#3B108F"/>
<path d="M41 21.748C37.126 20.9921 33.9528 14.2677 32.8504 11L26 15.1339C27.3228 22.126 31.8268 25.2913 33.9134 26L41 21.748Z" fill="#119B48" stroke="black" stroke-width="0.5"/>
</svg>
